<?xml version="1.0" encoding="UTF-8"?>
<svg width="40px" height="40px" viewBox="0 0 40 40" version="1.1" xmlns="http://www.w3.org/2000/svg" xmlns:xlink="http://www.w3.org/1999/xlink">
    <!-- Generator: Sketch 60.1 (88133) - https://sketch.com -->
    <title>lock</title>
    <desc>Created with Sketch.</desc>
    <g id="desktop-v2-2019" stroke="none" stroke-width="1" fill="none" fill-rule="evenodd">
        <g id="subscriber-only-lock-2" transform="translate(-700.000000, -211.000000)">
            <g id="slide-up" transform="translate(0.000000, 181.000000)">
                <g id="lock" transform="translate(700.000000, 30.000000)">
                    <g fill="#222222" id="Rectangle">
                        <rect x="0" y="0" width="40" height="40" rx="20"></rect>
                    </g>
                    <g id="icon-starlock-lg" transform="translate(9.000000, 6.000000)" fill="#F4F4F4">
                        <path d="M11,0 C14.9273582,0 18.1336447,3.08727558 18.3243586,6.96732575 L18.3333333,7.33333333 L18.3333333,11 L20.1666667,11 C21.1791887,11 22,11.8208118 22,12.8333333 L22,23.8333333 C22,24.8458549 21.1791887,25.6666667 20.1666667,25.6666667 L1.83333333,25.6666667 C0.820811292,25.6666667 0,24.8458549 0,23.8333333 L0,12.8333333 C0,11.8208118 0.820811292,11 1.83333333,11 L3.66666667,11 L3.66666667,7.33333333 L3.67564138,6.96732575 C3.86635535,3.08727558 7.07264177,0 11,0 Z M11,12.8333333 L9.70687245,16.5534957 L5.76918916,16.6337398 L8.9076757,19.0131709 L7.76718112,22.7829268 L11,20.5333333 L14.2328189,22.7829268 L13.0923243,19.0131709 L16.2308108,16.6337398 L12.2931275,16.5534957 L11,12.8333333 Z M11,3.66666667 C9.06700337,3.66666667 7.48336398,5.162443 7.34339054,7.05968542 L7.33333333,7.33333333 L7.33333333,11 L14.6666667,11 L14.6666667,7.33333333 C14.6666667,5.30828925 13.0250441,3.66666667 11,3.66666667 Z" id="Shape"></path>
                    </g>
                </g>
            </g>
        </g>
    </g>
</svg>